# Blender v2.79 (sub 0) OBJ File: ''
# www.blender.org
mtllib plane.mtl
o Cube.001
v 0.999999 0.848722 -3.528839
v -1.000000 -0.848722 -2.471161
v 1.000000 -0.848722 -2.471160
v -1.000000 0.848722 -3.528840
v -1.000000 -0.848722 -2.471161
v -1.000000 0.848722 -3.528840
v -2.300000 -0.848722 -1.971161
v -2.300000 0.848722 -3.028840
v 2.299999 0.848722 -3.028839
v 2.300000 -0.848722 -1.971160
vt 0.713276 0.714388
vt 0.294040 0.295152
vt 0.713276 0.295152
vt 0.294040 0.714389
vt 0.286724 0.714389
vt 0.286724 0.295152
vt 0.000069 0.658962
vt 0.000069 0.239725
vt 0.999931 0.239725
vt 0.999931 0.658961
vn -0.1469 0.5231 0.8395
vn -0.0000 0.2750 0.9614
vn -0.1661 0.5215 0.8369
vn 0.1526 0.2473 0.9568
vn 0.1726 0.2796 0.9445
vn 0.3103 0.5027 0.8068
vn -0.3103 0.5027 0.8068
usemtl None
s 1
f 1/1/1 2/2/2 3/3/3
f 1/1/1 4/4/2 2/2/2
f 2/2/2 4/4/2 6/5/4 5/6/5
f 5/6/5 6/5/4 8/7/6 7/8/6
f 1/1/1 3/3/3 10/9/7 9/10/7
